<svg xmlns="http://www.w3.org/2000/svg" viewBox="0 0 161.16 22.5"><title>f_Logo@2x</title><g id="Layer_2" data-name="Layer 2"><g id="Layer_1-2" data-name="Layer 1"><path d="M5.61,22.5H5A7.93,7.93,0,0,1,.45,21.06C.11,20.8,0,20.27,0,19.44q.06-.68.15-1.89c0-1.38.18-1.73.3-1.88A.53.53,0,0,1,1,15.43c.23,0,.51.14.54.62,0,.09,0,.3.06.8.18,3,1.44,4.45,3.84,4.49a5.2,5.2,0,0,0,3.31-.75,3.27,3.27,0,0,0,1.32-2.72,4.86,4.86,0,0,0-.89-3.09A8.08,8.08,0,0,0,7.35,13l-2.12-1.4A16.72,16.72,0,0,1,2.31,9.15,5.57,5.57,0,0,1,1,5.3,4.69,4.69,0,0,1,3,1.23,6.89,6.89,0,0,1,7.21.07,10,10,0,0,1,11.28,1a1,1,0,0,1,.58.66c0,.06,0,.22.07.83L12,5.06a.77.77,0,0,1-.15.49.59.59,0,0,1-.43.18c-.29,0-.51-.31-.69-1a6.06,6.06,0,0,0-1.19-2.6,3.31,3.31,0,0,0-2.36-.91H6.94a4.24,4.24,0,0,0-2.34.66A2.72,2.72,0,0,0,3.4,4.23,3.88,3.88,0,0,0,5.05,7.49c.47.4,1.57,1.17,3.25,2.28a12.73,12.73,0,0,1,1.55,1.15c.33.3.79.78,1.38,1.42a7.37,7.37,0,0,1,1.36,4.35,5.84,5.84,0,0,1-1.38,3.73A5.53,5.53,0,0,1,8,22.36a15.22,15.22,0,0,1-2.34.14m19.27-.27a6.82,6.82,0,0,0,5.17-1.79,5.23,5.23,0,0,0,1.38-2.51,13.92,13.92,0,0,0,.23-3v-11a3.64,3.64,0,0,1,.21-1.47c.12-.26.44-.39.93-.39.92,0,1.12-.39,1.12-.73s-.1-.69-.83-.69h0l-.91.07c-.55,0-.94.06-1.16.06L28.61.68c-.52,0-.81.22-.83.69,0,.31.17.69,1,.69a3.76,3.76,0,0,1,.93.1c.43.14.66.71.7,1.7q0,.87,0,2V15a20,20,0,0,1-.09,2.3,3.85,3.85,0,0,1-.81,1.91,5,5,0,0,1-4.18,1.71c-2,0-3.45-.67-4.12-2a6.12,6.12,0,0,1-.54-2.39V3.79a2.79,2.79,0,0,1,.25-1.44c.14-.19.52-.29,1.09-.29h.18a1.21,1.21,0,0,0,.64-.15.58.58,0,0,0,.29-.54.64.64,0,0,0-.7-.73L21.09.71c-.81,0-1.4.06-1.74.06L18.08.71c-.79,0-1.37-.07-1.73-.07a.65.65,0,0,0-.7.73c0,.31.16.69.91.69s1.21.18,1.33.32a3,3,0,0,1,.19,1.41V15A17.21,17.21,0,0,0,18.26,18c.59,2.78,2.82,4.2,6.62,4.2M44.64,22c.49,0,.76-.25.76-.69s-.17-.67-1-.67a5,5,0,0,1-1.06-.09,1,1,0,0,1-.64-.93V4.36A4.79,4.79,0,0,1,43,2.19a1.23,1.23,0,0,1,1.09-.43h.12a4.33,4.33,0,0,1,3.12,1.07,5.22,5.22,0,0,1,1.48,3.89,5.12,5.12,0,0,1-1.14,3.33,3.56,3.56,0,0,1-2.85,1.38c-.6,0-.91.1-1,.31a.54.54,0,0,0,0,.45,1.14,1.14,0,0,0,.72.48,3.6,3.6,0,0,0,1.19.21A5.75,5.75,0,0,0,50,11.1a6.23,6.23,0,0,0,1.76-4.52,6.3,6.3,0,0,0-.6-2.67,5.26,5.26,0,0,0-1.59-2.07,6.92,6.92,0,0,0-4.2-1.2L43.49.71c-1.23.05-2.05.06-2.38.06s-.88,0-1.57-.06S38.31.64,38,.64a.67.67,0,0,0-.75.73c0,.31.17.69,1,.69,1,0,1.31.16,1.42.29a2.51,2.51,0,0,1,.25,1.44V18.1a17,17,0,0,1-.06,1.8c-.09.46-.64.7-1.64.7-.82,0-1,.36-1,.67s.27.69.76.69l1.46-.07c1-.05,1.57-.07,1.92-.07l1.42.07c.88,0,1.52.07,1.91.07M55.2,22h.11l11.11-.14,2.22.1a.8.8,0,0,0,.36-.08h0l0,0a1.58,1.58,0,0,0,.19-.48c.16-1.18.29-2.34.39-3.41a4.2,4.2,0,0,0,.12-.82.54.54,0,0,0-.09-.48.48.48,0,0,0-.42-.16c-.3,0-.59.41-.9,1.29a3.66,3.66,0,0,1-1.86,2.34,9,9,0,0,1-3.11.37,6.55,6.55,0,0,1-2.68-.36c-.54-.31-.81-1.1-.81-2.35V12c0-.53.1-.68.16-.72s.29-.13,1.07-.13a16.48,16.48,0,0,1,3.52.23c.48.14.81.8,1,1.95a1.14,1.14,0,0,0,.16.57.51.51,0,0,0,.45.21.53.53,0,0,0,.39-.15.92.92,0,0,0,.18-.71c-.08-1.8-.11-2.81-.11-3s0-1.24.11-3a.56.56,0,0,0-.13-.45.61.61,0,0,0-.44-.15c-.22,0-.52.13-.61.77-.17,1-.24,1.28-.26,1.36a1,1,0,0,1-.81.73,27.28,27.28,0,0,1-3.43.13c-.77,0-1-.11-1.06-.16s-.17-.24-.17-1.16V3.09A1.91,1.91,0,0,1,60,2.47c0-.15.21-.26.49-.34a2.46,2.46,0,0,1,.7-.07,11.63,11.63,0,0,1,3.61.3,2.64,2.64,0,0,1,1.26.8,6.17,6.17,0,0,1,.84,1.94c.15.55.39.83.72.83.17,0,.45-.07.48-.53V1.55a.93.93,0,0,0-.19-.74.6.6,0,0,0-.44-.17l-3.24.1c-.72,0-1.88,0-3.53,0-.45,0-1.2,0-2.21-.06S56.36.64,55.31.64a.68.68,0,0,0-.75.76c0,.3.17.66,1,.66s1.32.17,1.43.31a2.48,2.48,0,0,1,.26,1.45V18a6.87,6.87,0,0,1-.16,2.09c-.18.29-.69.44-1.53.44s-1,.36-1,.66a.65.65,0,0,0,.19.62.68.68,0,0,0,.45.15M80,22a.63.63,0,0,0,.7-.69c0-.31-.17-.67-.94-.67s-1.22-.15-1.38-.43a7.62,7.62,0,0,1-.13-2.07V13a3.28,3.28,0,0,1,.08-1.07,1,1,0,0,1,.48-.16,5.9,5.9,0,0,1,.86-.06,2.74,2.74,0,0,1,1.62.41,6.2,6.2,0,0,1,1.26,2.1c1.52,3.41,2.44,5.39,2.72,5.86.18.31.37.65.59,1a1.36,1.36,0,0,0,.89.67c.83.08,1.52.12,2.06.12a5.06,5.06,0,0,0,.58,0h.22c.75,0,.91-.33.91-.59s-.27-.64-.78-.8l-.7-.23a3.82,3.82,0,0,1-.73-.7,7.47,7.47,0,0,1-1-1.49l-2.6-5.21c-.3-.6-.56-1.08-.75-1.4a2.54,2.54,0,0,0-.45-.58,2.63,2.63,0,0,0,1.06-.64,5.87,5.87,0,0,0,1.87-4.28A5.12,5.12,0,0,0,84.9,2,5.4,5.4,0,0,0,81.15.64L79.21.71c-1.2,0-2.1.06-2.64.06L75.45.71c-.7,0-1.21-.07-1.52-.07a.67.67,0,0,0-.72.77c0,.3.19.65.94.65s1.16.16,1.26.29a2.92,2.92,0,0,1,.21,1.47V18.1c0,1.24,0,1.67,0,1.8-.08.48-.56.7-1.44.7s-.94.36-.94.67a.62.62,0,0,0,.69.69l1.34-.07c.84-.05,1.41-.07,1.74-.07l1.26.07c.78,0,1.36.07,1.74.07M78.35,10.4l0,0s-.09-.1-.09-.36V4.26c0-1.45.13-1.92.26-2.08s.48-.32,1.6-.32A3.21,3.21,0,0,1,82.78,3a5.37,5.37,0,0,1,.91,3.28,5.19,5.19,0,0,1-.3,1.8,3.12,3.12,0,0,1-2.21,2.21,7.19,7.19,0,0,1-1.81.2,5.14,5.14,0,0,1-.64,0l-.38-.1ZM93.57,21.86h.1c.83-.08,1.15-.12,1.53-.13.77,0,2.57.07,2.57.07,1.59,0,2.74.06,3.42.06a8.65,8.65,0,0,0,2.24-.27,4.9,4.9,0,0,0,3.35-3.06,6.77,6.77,0,0,0,.53-2.67,6.42,6.42,0,0,0-1.13-3.73,5.2,5.2,0,0,0-2.64-2,4.37,4.37,0,0,0,2.77-4.35,5,5,0,0,0-.72-2.62,4.89,4.89,0,0,0-3.9-2.31A24.52,24.52,0,0,0,98.92.71l-1.29,0H96.26l-2-.06a4.5,4.5,0,0,0-1.3,0c-.19.07-.4.26-.37.72a.58.58,0,0,0,.56.58,10.9,10.9,0,0,1,1.2.11.94.94,0,0,1,.78.48,7.21,7.21,0,0,1,.09,1.47V18a6.87,6.87,0,0,1-.14,2c-.14.31-.55.46-1.22.46s-.87.32-.88.59a1,1,0,0,0,.14.55.49.49,0,0,0,.43.19m4.24-10.48a2.23,2.23,0,0,1,.83-.22c.42,0,.8-.05,1.13-.05a4.89,4.89,0,0,1,3,.88,4.51,4.51,0,0,1,1.73,3.93,5.05,5.05,0,0,1-1.15,3.38,3.55,3.55,0,0,1-2.87,1.1A3.78,3.78,0,0,1,98.35,20a1.91,1.91,0,0,1-.6-1.22c0-.2,0-.72,0-1.58V12.39a2.79,2.79,0,0,1,.09-1m1.84-9.32a3.88,3.88,0,0,1,2.78,1,3.83,3.83,0,0,1,1,2.91,4.08,4.08,0,0,1-.83,2.65,3.35,3.35,0,0,1-2.71,1H98.63c-.61,0-.76-.09-.79-.12s-.12-.2-.12-1.1V3.69q0-1.35.66-1.53a5.83,5.83,0,0,1,1.27-.1M109.88,22l.53,0c.44,0,.81,0,1.06-.07.63,0,1.1-.06,1.38-.06l1.13.06c.64,0,1.08.07,1.3.07h0c.82.07.95-.39.95-.65a.6.6,0,0,0-.15-.45,1.09,1.09,0,0,0-.82-.25c-1.73,0-1.73-.69-1.73-.91a5.06,5.06,0,0,1,.15-.78c.52-1.53.94-2.7,1.24-3.46a5.16,5.16,0,0,1,.43-1s.1-.1.79-.1l2.26,0,1.88,0h.58c.27,0,.44,0,.5.17l0,.07.39,1.25c.65,2,1,3.2,1.07,3.52.14.65,0,1-.46,1.2a6.37,6.37,0,0,1-1.12.06c-.9,0-1.11.41-1.12.76s.1.59.73.59l1.42-.07c.86,0,1.47-.06,1.81-.06s1.06,0,1.92.06,1.5.07,2,.07.65-.34.66-.54a.66.66,0,0,0-.15-.53,1.14,1.14,0,0,0-.89-.28,1.68,1.68,0,0,1-1.48-1c-.13-.29-.39-1-.75-2.08L120.58,3,119.89.86c-.18-.58-.38-.86-.63-.86s-.45.18-.56.52a3.27,3.27,0,0,0-.16.43l-6,16.64c-.23.63-.4,1.09-.52,1.37-.48,1.18-.86,1.49-1.09,1.55a4.36,4.36,0,0,1-.82.06h-.31c-.62,0-.75.41-.75.73s.1.66.78.66m6-9.23a2.19,2.19,0,0,1,.07-.23l2.15-6c.07-.25.14-.44.18-.57s.18-.51.26-.73a.42.42,0,0,1,0-.12v0c.21.62.35,1.1.43,1.41l1.76,5.85c.07.24.1.36.11.42a1.16,1.16,0,0,1-.27,0h-2.18l-2.3,0h-.25M143.26,22c.49,0,.8-.16.92-.44a2.89,2.89,0,0,0,.1-1.07,14.47,14.47,0,0,1,.15-1.73,14.68,14.68,0,0,0,.15-1.72c0-.61-.26-.74-.48-.74s-.46.2-.6.6A6.32,6.32,0,0,1,142,19.52a4.41,4.41,0,0,1-3.09,1c-1.14,0-1.88-.26-2.2-.77a6.86,6.86,0,0,1-.32-2.67V3.79c0-.91.15-1.27.28-1.42s.47-.31,1.42-.31,1-.38,1-.69a.68.68,0,0,0-.77-.73l-1.45.07c-.89.05-1.54.06-1.92.06L133.61.71c-.89,0-1.54-.07-2-.07a.77.77,0,0,0-.59.21.68.68,0,0,0-.16.53c0,.31.23.68,1,.68,1,0,1.34.16,1.44.29s.26.5.26,1.44V18.07a5.9,5.9,0,0,1-.17,2.06c-.1.18-.44.4-1.5.4-.85,0-1,.38-1,.7a.67.67,0,0,0,.75.73c.33,0,.84,0,1.5-.07s1.16-.07,1.47-.07l3.69.07c2.26,0,3.93.07,4.94.07m16.57,0c.5,0,.81-.16.92-.44a2.52,2.52,0,0,0,.11-1.07,14.47,14.47,0,0,1,.15-1.73,14.68,14.68,0,0,0,.15-1.72c0-.61-.26-.74-.48-.74s-.46.2-.61.6a6.33,6.33,0,0,1-1.47,2.66,4.41,4.41,0,0,1-3.09,1c-1.14,0-1.89-.26-2.2-.77a7.14,7.14,0,0,1-.31-2.67V3.79a2.37,2.37,0,0,1,.27-1.42c.12-.14.47-.31,1.42-.31s1-.38,1-.69A.67.67,0,0,0,155,.64l-1.45.07c-.89.05-1.55.06-1.93.06L150.2.71c-.89,0-1.55-.07-1.95-.07a.78.78,0,0,0-.6.21.68.68,0,0,0-.16.53c0,.31.24.68,1,.68,1,0,1.34.16,1.45.29a2.56,2.56,0,0,1,.24,1.44V18.07a5.59,5.59,0,0,1-.17,2.06c-.09.18-.43.4-1.48.4-.86,0-1,.38-1,.7a.67.67,0,0,0,.76.73c.33,0,.83,0,1.49-.07s1.15-.07,1.47-.07l3.69.07c2.26,0,3.93.07,4.93.07"/></g></g></svg>