<svg xmlns="http://www.w3.org/2000/svg" viewBox="0 0 230 56.09"><title>logo@2x</title><g id="Layer_2" data-name="Layer 2"><g id="main"><path d="M28.05,5.63s.18-.45.32-.7.56-.81.56-.81a2.42,2.42,0,0,0,.6-1.87A2.24,2.24,0,0,0,28.91.89l-.18-.2L28.34.33A2.13,2.13,0,0,1,28.05,0a2.51,2.51,0,0,1-.3.33l-.39.36-.18.2a2.24,2.24,0,0,0-.62,1.36,2.42,2.42,0,0,0,.6,1.87s.32.43.56.81S28.05,5.63,28.05,5.63ZM5.62,28.05s-.45-.19-.69-.33a8.75,8.75,0,0,1-.81-.56,2.47,2.47,0,0,0-1.87-.6,2.31,2.31,0,0,0-1.36.62l-.2.18-.36.39a2.51,2.51,0,0,1-.33.3,3,3,0,0,1,.33.29l.36.39.2.19a2.26,2.26,0,0,0,1.36.61,2.43,2.43,0,0,0,1.87-.6s.42-.32.81-.56A6.86,6.86,0,0,1,5.62,28.05Zm45.54.32c.39.24.81.56.81.56a2.43,2.43,0,0,0,1.87.6,2.26,2.26,0,0,0,1.36-.61l.2-.19.36-.39a3,3,0,0,1,.33-.29,2.51,2.51,0,0,1-.33-.3l-.36-.39-.2-.18a2.31,2.31,0,0,0-1.36-.62,2.47,2.47,0,0,0-1.87.6,8.75,8.75,0,0,1-.81.56c-.24.14-.69.33-.69.33A6.86,6.86,0,0,1,51.16,28.37ZM27.72,51.16c-.24.39-.56.81-.56.81a2.43,2.43,0,0,0-.6,1.87,2.33,2.33,0,0,0,.62,1.37l.18.19.39.36a2.51,2.51,0,0,1,.3.33,2.13,2.13,0,0,1,.29-.33l.39-.36.18-.19a2.33,2.33,0,0,0,.62-1.37,2.43,2.43,0,0,0-.6-1.87,8.75,8.75,0,0,1-.56-.81,6.86,6.86,0,0,1-.32-.69S27.86,50.92,27.72,51.16Zm.33-5.7a17.41,17.41,0,1,1,17.4-17.41A17.43,17.43,0,0,1,28.05,45.46Zm0-34.43a17,17,0,1,0,17,17A17,17,0,0,0,28.05,11Zm0,33.19A16.18,16.18,0,1,1,44.22,28.05,16.19,16.19,0,0,1,28.05,44.22Zm0-31.26A15.09,15.09,0,1,0,43.14,28.05,15.1,15.1,0,0,0,28.05,13ZM27.2,39.15h-.63a7.83,7.83,0,0,1-4.48-1.42c-.36-.26-.5-.79-.46-1.63,0-.45.09-1.08.15-1.86,0-1.36.18-1.73.3-1.88a.62.62,0,0,1,.6-.26.6.6,0,0,1,.55.65c0,.1,0,.31.06.79.18,2.92,1.4,4.35,3.76,4.4h.32a4.87,4.87,0,0,0,2.93-.74,3.18,3.18,0,0,0,1.27-2.66,4.78,4.78,0,0,0-.86-3,7.86,7.86,0,0,0-1.82-1.75l-2.08-1.4A15.63,15.63,0,0,1,23.91,26a5.6,5.6,0,0,1-1.33-3.82,4.67,4.67,0,0,1,2-4.05,6.73,6.73,0,0,1,4.18-1.16,9.9,9.9,0,0,1,4,.88,1,1,0,0,1,.59.67,5.18,5.18,0,0,1,.07.83l.05,2.59a.76.76,0,0,1-.15.51.62.62,0,0,1-.45.19c-.41,0-.61-.56-.73-1a5.89,5.89,0,0,0-1.15-2.56,3.28,3.28,0,0,0-2.3-.88h-.24a4.18,4.18,0,0,0-2.29.64,2.6,2.6,0,0,0-1.16,2.26,3.77,3.77,0,0,0,1.61,3.19c.47.39,1.55,1.15,3.21,2.25a14.72,14.72,0,0,1,1.54,1.14c.32.29.78.76,1.36,1.41h0a7.17,7.17,0,0,1,1.34,4.31,5.9,5.9,0,0,1-1.36,3.7A5.55,5.55,0,0,1,29.53,39,15.07,15.07,0,0,1,27.2,39.15ZM24.44,6.79a1.34,1.34,0,0,0-.6,1.28A1.8,1.8,0,0,0,25,9.43a2.63,2.63,0,0,0,.85.14,1.82,1.82,0,0,0,1.4-.63,2.45,2.45,0,0,0,.27-2.42,8.36,8.36,0,0,0-1-1.67,4.44,4.44,0,0,1-.86-2.35,2.21,2.21,0,0,1,.19-.95.76.76,0,0,1-.23,0,3.58,3.58,0,0,0-.4,0,1,1,0,0,0-.5.12,1,1,0,0,0-.5.89,2,2,0,0,0,.25.92A11.47,11.47,0,0,0,26,5.24a4.7,4.7,0,0,1,1,1.27,1.53,1.53,0,0,1,0,1.21c-.29.65-.7.78-1,.78h0a1,1,0,0,1-.35-.09,1,1,0,0,0,.14-1.35A1.05,1.05,0,0,0,24.44,6.79Zm-7,2.63a1.15,1.15,0,0,0-.87,1A1.38,1.38,0,0,0,17,11.69,1.78,1.78,0,0,0,18.2,12a2.49,2.49,0,0,0,1.49-.6A8.48,8.48,0,0,1,21.83,10a3.47,3.47,0,0,1,1.57-.29,3.87,3.87,0,0,1-1.12-1.08,3.93,3.93,0,0,1-1-2,2.61,2.61,0,0,1,.29-1.94,1.06,1.06,0,0,1,.62-.4,1,1,0,0,1,1,.22.82.82,0,0,0-.27,0,1,1,0,0,0-.38.37.9.9,0,0,0-.07.65,1,1,0,0,0,.88.59c.46,0,1.25-.39.91-1.89a2.53,2.53,0,0,0-.77-1.21,2.36,2.36,0,0,0-1.05-.45A3.42,3.42,0,0,0,20.48,3,5.66,5.66,0,0,0,18.3,5l-.67,1.1A9.6,9.6,0,0,1,16.5,8a1.92,1.92,0,0,1-.91.52.73.73,0,0,0,.19-.19.78.78,0,0,0-.19-1,1,1,0,0,0-1.08-.1,1.15,1.15,0,0,0-.58,1.31,1.24,1.24,0,0,0,.85.8,2.14,2.14,0,0,0,1.43-.17,3.38,3.38,0,0,0,1-.8,4.54,4.54,0,0,1,.49-.51A2.43,2.43,0,0,1,19,7.25a2.17,2.17,0,0,1,1.2.17,1.35,1.35,0,0,1,.65.71,1.45,1.45,0,0,1-.07,1.09,3.17,3.17,0,0,1-.56.86,4.19,4.19,0,0,1-.8.66,1.5,1.5,0,0,1-1.05.21.56.56,0,0,0,.33-.23.91.91,0,0,0-.14-1A1.09,1.09,0,0,0,17.42,9.42ZM19.68,6.2a2.34,2.34,0,0,0-1.08.11,3.27,3.27,0,0,1,.65-1.16A6.08,6.08,0,0,1,20,4.44a1.75,1.75,0,0,1,1-.34,2.61,2.61,0,0,0-.46.84,3.58,3.58,0,0,0-.12,1.5A2.28,2.28,0,0,0,19.68,6.2ZM10.17,21a1.54,1.54,0,0,1-.69,1,2.18,2.18,0,0,1-1.32.31c-.43,0-.66,0-1.12,0a4.34,4.34,0,0,0-.55.07,1.72,1.72,0,0,0,0-1.07,1.22,1.22,0,0,0-1.14-.79A1.36,1.36,0,0,0,4.05,21a1.64,1.64,0,0,1,1.14.45,1.17,1.17,0,0,1,.28,1,.64.64,0,0,1-.22.41h0a2.16,2.16,0,0,0-.44.59,2.63,2.63,0,0,0-.25,1.32,1.42,1.42,0,0,0,.09.4A1.91,1.91,0,0,0,4,24.53a1.7,1.7,0,0,0-1-.3A1.57,1.57,0,0,0,1.73,25a1.45,1.45,0,0,0-.15.7,2.83,2.83,0,0,1,1.26-.12,4.46,4.46,0,0,1,1.07.26,3.86,3.86,0,0,1,1.31.77,2.75,2.75,0,0,0,1.83,1.11,1.53,1.53,0,0,0,1.6-.95,1.58,1.58,0,0,0,0-1.16,1.2,1.2,0,0,0-1.12-.77,1,1,0,0,0-.9.41,1,1,0,0,0,0,1c.39.62.87.39.87.39s0,.14-.18.26a.83.83,0,0,1-.92,0,1.9,1.9,0,0,1-.95-1.8,1.88,1.88,0,0,1,.77-1.5,1.64,1.64,0,0,1,1.22-.22A1.85,1.85,0,0,1,8.52,24a2.27,2.27,0,0,1,.7,1.3,1.71,1.71,0,0,0,.23-1.39,1,1,0,0,0-.39-.58,1.18,1.18,0,0,0-.25-.13,2.74,2.74,0,0,0,.62,0,1.16,1.16,0,0,0,1-1A1.84,1.84,0,0,0,10.17,21Zm5.44-10.2a2.92,2.92,0,0,0-2.42-1,3.46,3.46,0,0,0-2.31.88,4.36,4.36,0,0,0-1.54,3.83,11.53,11.53,0,0,0,.24,2.19,6,6,0,0,1,.08.73C9.79,19.22,9,19.42,9,19.42a.83.83,0,0,0-.42-.93,1.15,1.15,0,0,0-1.28.08,1.12,1.12,0,0,0-.53.94A1.56,1.56,0,0,0,8,21.08a2.09,2.09,0,0,0,1.73-.35,2.86,2.86,0,0,0,.92-1.41,4,4,0,0,0,.08-1.39,8,8,0,0,0-.21-1.35,1.65,1.65,0,0,0,.54.81,1.5,1.5,0,0,0,1.43.17,1.38,1.38,0,0,0,.75-1.23,2.32,2.32,0,0,1-1.22.1,2,2,0,0,1-1.24-.84,2.67,2.67,0,0,1-.37-1.31,5.51,5.51,0,0,1,.11-1.14,2.9,2.9,0,0,0,.14.66,1,1,0,0,0,.85.69.75.75,0,0,0,.7-.46,1.1,1.1,0,0,0,0-.81.59.59,0,0,1-.24.19.34.34,0,0,1-.38-.07c-.1-.09-.31-.23-.3-1A1.56,1.56,0,0,1,12,11a3,3,0,0,1,1.14-.38,2.07,2.07,0,0,1,1.55.38,1.59,1.59,0,0,1,.66.93,1.77,1.77,0,0,1,0,1,1.22,1.22,0,0,1-.52.68.68.68,0,0,0-.13-.74.93.93,0,0,0-1.06-.25,1.11,1.11,0,0,0-.74.93,1.2,1.2,0,0,0,1.07,1.37,2,2,0,0,0,2.18-1.57A2.66,2.66,0,0,0,15.61,10.77ZM30.3,7.06a1,1,0,0,0,.14,1.35,1,1,0,0,1-.35.09h0c-.27,0-.68-.13-1-.78a1.53,1.53,0,0,1,0-1.21,4.7,4.7,0,0,1,1-1.27,11.47,11.47,0,0,0,1.55-1.79,1.81,1.81,0,0,0,.24-.92,1,1,0,0,0-.49-.89,1,1,0,0,0-.49-.12,3.55,3.55,0,0,0-.41,0,.76.76,0,0,1-.23,0,2.21,2.21,0,0,1,.19,1,4.44,4.44,0,0,1-.86,2.35,8.36,8.36,0,0,0-1,1.67,2.42,2.42,0,0,0,.27,2.42,1.82,1.82,0,0,0,1.4.63,2.63,2.63,0,0,0,.85-.14,1.8,1.8,0,0,0,1.15-1.36,1.34,1.34,0,0,0-.6-1.28A1.05,1.05,0,0,0,30.3,7.06Zm7.22,2.69a.93.93,0,0,0-.13,1,.56.56,0,0,0,.33.23,1.5,1.5,0,0,1-1-.21,4.19,4.19,0,0,1-.8-.66,3,3,0,0,1-.56-.86,1.45,1.45,0,0,1-.07-1.09,1.35,1.35,0,0,1,.65-.71,2.17,2.17,0,0,1,1.2-.17,2.46,2.46,0,0,1,1.27.6,4.54,4.54,0,0,1,.49.51,3.38,3.38,0,0,0,1,.8,2.14,2.14,0,0,0,1.43.17,1.24,1.24,0,0,0,.85-.8,1.15,1.15,0,0,0-.58-1.31,1,1,0,0,0-1.08.1.78.78,0,0,0-.19,1,.73.73,0,0,0,.19.19A1.92,1.92,0,0,1,39.59,8,10.33,10.33,0,0,1,38.45,6.1L37.79,5a5.73,5.73,0,0,0-2.18-2,3.42,3.42,0,0,0-1.92-.35,2.36,2.36,0,0,0-1,.45,2.45,2.45,0,0,0-.77,1.21c-.34,1.5.45,1.86.91,1.89a1,1,0,0,0,.88-.59.9.9,0,0,0-.07-.65,1,1,0,0,0-.38-.37.82.82,0,0,0-.27,0,1,1,0,0,1,1-.22,1.06,1.06,0,0,1,.62.4,2.61,2.61,0,0,1,.29,1.94,3.93,3.93,0,0,1-1,2,3.87,3.87,0,0,1-1.12,1.08,3.47,3.47,0,0,1,1.57.29,8.48,8.48,0,0,1,2.14,1.48,2.49,2.49,0,0,0,1.49.6,1.78,1.78,0,0,0,1.18-.34,1.38,1.38,0,0,0,.47-1.27,1.15,1.15,0,0,0-.87-1A1.11,1.11,0,0,0,37.52,9.75ZM35.74,6.44a3.58,3.58,0,0,0-.12-1.5,2.92,2.92,0,0,0-.45-.84,1.73,1.73,0,0,1,.95.34,6.08,6.08,0,0,1,.72.71,3.16,3.16,0,0,1,.64,1.16,2.27,2.27,0,0,0-1.07-.11A2.16,2.16,0,0,0,35.74,6.44Zm9.91,15.68a1.16,1.16,0,0,0,1,1,2.74,2.74,0,0,0,.62,0,1.43,1.43,0,0,0-.26.13,1,1,0,0,0-.38.58,1.71,1.71,0,0,0,.23,1.39,2.27,2.27,0,0,1,.7-1.3,1.85,1.85,0,0,1,1.09-.51,1.61,1.61,0,0,1,1.21.22,1.85,1.85,0,0,1,.78,1.5A1.9,1.9,0,0,1,49.7,27a.83.83,0,0,1-.92,0c-.19-.12-.18-.26-.18-.26s.48.23.87-.39a1,1,0,0,0,0-1,1,1,0,0,0-.9-.41,1.19,1.19,0,0,0-1.12.77,1.64,1.64,0,0,0,0,1.16,1.55,1.55,0,0,0,1.61.95,2.75,2.75,0,0,0,1.83-1.11,3.86,3.86,0,0,1,1.31-.77,4.46,4.46,0,0,1,1.07-.26,2.83,2.83,0,0,1,1.26.12,1.45,1.45,0,0,0-.15-.7,1.57,1.57,0,0,0-1.31-.77,1.7,1.7,0,0,0-1,.3,1.91,1.91,0,0,0-.61.72,1.42,1.42,0,0,0,.09-.4,2.63,2.63,0,0,0-.25-1.32,2.16,2.16,0,0,0-.44-.59h0a.64.64,0,0,1-.22-.41,1.17,1.17,0,0,1,.28-1A1.64,1.64,0,0,1,52,21a1.36,1.36,0,0,0-1.29-.59,1.24,1.24,0,0,0-1.15.79,1.78,1.78,0,0,0,0,1.07,4.34,4.34,0,0,0-.55-.07c-.46,0-.69,0-1.12,0A2.18,2.18,0,0,1,46.61,22a1.54,1.54,0,0,1-.69-1A1.84,1.84,0,0,0,45.65,22.12ZM40,13.34a2,2,0,0,0,2.18,1.57,1.2,1.2,0,0,0,1.07-1.37,1.13,1.13,0,0,0-.74-.93.93.93,0,0,0-1.06.25.68.68,0,0,0-.13.74,1.22,1.22,0,0,1-.52-.68,1.77,1.77,0,0,1,0-1,1.64,1.64,0,0,1,.66-.93A2.07,2.07,0,0,1,43,10.64a3,3,0,0,1,1.14.38,1.56,1.56,0,0,1,.71,1.35c0,.74-.2.88-.3,1a.34.34,0,0,1-.38.07.59.59,0,0,1-.24-.19,1.1,1.1,0,0,0,0,.81.75.75,0,0,0,.7.46,1,1,0,0,0,.85-.69,2.9,2.9,0,0,0,.14-.66,4.9,4.9,0,0,1,.11,1.14,2.67,2.67,0,0,1-.37,1.31,2,2,0,0,1-1.24.84,2.32,2.32,0,0,1-1.22-.1,1.38,1.38,0,0,0,.75,1.23,1.5,1.5,0,0,0,1.43-.17,1.65,1.65,0,0,0,.54-.81,8,8,0,0,0-.21,1.35,4,4,0,0,0,.08,1.39,2.86,2.86,0,0,0,.92,1.41,2.09,2.09,0,0,0,1.73.35,1.56,1.56,0,0,0,1.24-1.57,1.12,1.12,0,0,0-.53-.94,1.16,1.16,0,0,0-1.28-.08.83.83,0,0,0-.42.93s-.83-.2-.72-2.06c0-.35,0-.47.09-.73a11.53,11.53,0,0,0,.24-2.19,4.36,4.36,0,0,0-1.54-3.83,3.46,3.46,0,0,0-2.31-.88,3,3,0,0,0-2.43,1A2.69,2.69,0,0,0,40,13.34ZM25.79,49a1,1,0,0,0-.14-1.35,1,1,0,0,1,.35-.09h0c.27,0,.68.12,1,.79a1.55,1.55,0,0,1,0,1.21,4.77,4.77,0,0,1-1,1.26,11.89,11.89,0,0,0-1.55,1.78,2,2,0,0,0-.25.93,1,1,0,0,0,.5.9,1.06,1.06,0,0,0,.5.11,2.15,2.15,0,0,0,.4,0,.5.5,0,0,1,.23,0,2.26,2.26,0,0,1-.19-1,4.44,4.44,0,0,1,.86-2.35,8.36,8.36,0,0,0,1-1.67,2.47,2.47,0,0,0-.27-2.43,1.88,1.88,0,0,0-1.4-.62,2.93,2.93,0,0,0-.85.14A1.8,1.8,0,0,0,23.84,48a1.34,1.34,0,0,0,.6,1.28A1.05,1.05,0,0,0,25.79,49Zm-7.23-2.69a.9.9,0,0,0,.14-1,.5.5,0,0,0-.33-.24,1.5,1.5,0,0,1,1.05.21,3.9,3.9,0,0,1,.8.67,3,3,0,0,1,.56.85A1.45,1.45,0,0,1,20.85,48a1.28,1.28,0,0,1-.65.71,2.17,2.17,0,0,1-1.2.17,2.43,2.43,0,0,1-1.27-.6,4.54,4.54,0,0,1-.49-.51,3.38,3.38,0,0,0-1-.8,2.14,2.14,0,0,0-1.43-.17,1.25,1.25,0,0,0-.85.81,1.14,1.14,0,0,0,.58,1.3,1,1,0,0,0,1.08-.09.8.8,0,0,0,.19-1,.57.57,0,0,0-.19-.19,2,2,0,0,1,.91.52A9.89,9.89,0,0,1,17.63,50l.67,1.1a5.69,5.69,0,0,0,2.18,2,3.49,3.49,0,0,0,1.92.34A2.47,2.47,0,0,0,23.45,53a2.59,2.59,0,0,0,.77-1.2c.34-1.51-.45-1.87-.91-1.9a1,1,0,0,0-.88.6.91.91,0,0,0,.07.65.66.66,0,0,0,.65.4,1,1,0,0,1-1,.23,1,1,0,0,1-.62-.39,2.64,2.64,0,0,1-.29-2,3.88,3.88,0,0,1,1-2,3.6,3.6,0,0,1,1.12-1.07,3.61,3.61,0,0,1-1.57-.3,8.48,8.48,0,0,1-2.14-1.48,2.55,2.55,0,0,0-1.49-.59,1.68,1.68,0,0,0-1.18.34,1.35,1.35,0,0,0-.47,1.26,1.15,1.15,0,0,0,.87,1A1.11,1.11,0,0,0,18.56,46.34Zm1.79,3.31a3.63,3.63,0,0,0,.12,1.51,2.61,2.61,0,0,0,.46.84,1.85,1.85,0,0,1-1-.34,7,7,0,0,1-.72-.72,3.36,3.36,0,0,1-.65-1.16,2.34,2.34,0,0,0,1.08.11A2.28,2.28,0,0,0,20.35,49.65ZM10.44,34a1.14,1.14,0,0,0-1-1,2.46,2.46,0,0,0-.62,0,1.18,1.18,0,0,0,.25-.13,1,1,0,0,0,.39-.58,1.71,1.71,0,0,0-.23-1.39,2.27,2.27,0,0,1-.7,1.3,1.79,1.79,0,0,1-1.09.51,1.69,1.69,0,0,1-1.22-.22,1.88,1.88,0,0,1-.77-1.5,1.9,1.9,0,0,1,.95-1.8.85.85,0,0,1,.92,0c.19.13.18.26.18.26s-.48-.22-.87.4a1,1,0,0,0,0,1,1,1,0,0,0,.9.41,1.22,1.22,0,0,0,1.12-.76,1.61,1.61,0,0,0,0-1.17,1.53,1.53,0,0,0-1.6-.95,2.75,2.75,0,0,0-1.83,1.11,3.86,3.86,0,0,1-1.31.77,4.46,4.46,0,0,1-1.07.26,3,3,0,0,1-1.26-.12,1.43,1.43,0,0,0,.15.7A1.57,1.57,0,0,0,3,31.86a1.7,1.7,0,0,0,1-.3,1.91,1.91,0,0,0,.61-.72,1.42,1.42,0,0,0-.09.4,2.63,2.63,0,0,0,.25,1.32,1.9,1.9,0,0,0,.44.59h0a.64.64,0,0,1,.22.41,1.17,1.17,0,0,1-.28,1,1.69,1.69,0,0,1-1.14.45,1.36,1.36,0,0,0,1.29.59,1.22,1.22,0,0,0,1.14-.79,1.72,1.72,0,0,0,0-1.07,3.06,3.06,0,0,0,.55.07c.46,0,.69,0,1.12,0a2.18,2.18,0,0,1,1.32.31,1.54,1.54,0,0,1,.69,1A1.81,1.81,0,0,0,10.44,34Zm5.68,8.78a2,2,0,0,0-2.18-1.58,1.21,1.21,0,0,0-1.07,1.38,1.14,1.14,0,0,0,.74.94,1,1,0,0,0,1.06-.25.7.7,0,0,0,.13-.75,1.22,1.22,0,0,1,.52.68,1.81,1.81,0,0,1,0,1,1.61,1.61,0,0,1-.66.92,2.07,2.07,0,0,1-1.55.38A3,3,0,0,1,12,45.07a1.55,1.55,0,0,1-.71-1.34c0-.75.2-.89.3-1a.35.35,0,0,1,.38-.06.59.59,0,0,1,.24.19,1.1,1.1,0,0,0,0-.81.78.78,0,0,0-.7-.47,1,1,0,0,0-.85.7,2.9,2.9,0,0,0-.14.66,5.4,5.4,0,0,1-.11-1.15,2.63,2.63,0,0,1,.37-1.29A2,2,0,0,1,12,39.66a2.43,2.43,0,0,1,1.22.1,1.39,1.39,0,0,0-.75-1.23,1.47,1.47,0,0,0-1.43.18,1.59,1.59,0,0,0-.54.8,8.2,8.2,0,0,0,.21-1.35,4,4,0,0,0-.08-1.39,2.77,2.77,0,0,0-.92-1.41A2.09,2.09,0,0,0,8,35a1.56,1.56,0,0,0-1.24,1.57,1.15,1.15,0,0,0,.53,1,1.19,1.19,0,0,0,1.28.07A.83.83,0,0,0,9,36.67s.84.21.71,2.06a6,6,0,0,1-.08.73,11.53,11.53,0,0,0-.24,2.19,4.36,4.36,0,0,0,1.54,3.83,3.46,3.46,0,0,0,2.31.88,2.92,2.92,0,0,0,2.42-1A2.66,2.66,0,0,0,16.12,42.75ZM31.65,49.3a1.34,1.34,0,0,0,.6-1.28,1.8,1.8,0,0,0-1.15-1.36,2.93,2.93,0,0,0-.85-.14,1.88,1.88,0,0,0-1.4.62,2.44,2.44,0,0,0-.27,2.43,8.36,8.36,0,0,0,1,1.67,4.44,4.44,0,0,1,.86,2.35,2.26,2.26,0,0,1-.19,1,.5.5,0,0,1,.23,0,2.18,2.18,0,0,0,.41,0,1,1,0,0,0,.49-.11,1,1,0,0,0,.49-.9,1.87,1.87,0,0,0-.24-.93,11.89,11.89,0,0,0-1.55-1.78,4.77,4.77,0,0,1-1-1.26,1.55,1.55,0,0,1,0-1.21c.29-.67.7-.79,1-.79h0a1,1,0,0,1,.35.09A1,1,0,0,0,30.3,49,1.05,1.05,0,0,0,31.65,49.3Zm7-2.63a1.15,1.15,0,0,0,.87-1,1.35,1.35,0,0,0-.47-1.26,1.68,1.68,0,0,0-1.18-.34,2.55,2.55,0,0,0-1.49.59,8.48,8.48,0,0,1-2.14,1.48,3.61,3.61,0,0,1-1.57.3,3.6,3.6,0,0,1,1.12,1.07,3.88,3.88,0,0,1,1,2,2.64,2.64,0,0,1-.29,2,1,1,0,0,1-.62.39,1,1,0,0,1-1-.23.66.66,0,0,0,.65-.4.91.91,0,0,0,.07-.65,1,1,0,0,0-.88-.6c-.46,0-1.25.39-.91,1.9a2.52,2.52,0,0,0,.77,1.2,2.47,2.47,0,0,0,1,.45,3.49,3.49,0,0,0,1.92-.34,5.76,5.76,0,0,0,2.18-2c.33-.54.52-.85.66-1.1a10.66,10.66,0,0,1,1.14-1.92,2,2,0,0,1,.91-.52.57.57,0,0,0-.19.19.8.8,0,0,0,.19,1,1,1,0,0,0,1.08.09,1.14,1.14,0,0,0,.58-1.3,1.25,1.25,0,0,0-.85-.81,2.14,2.14,0,0,0-1.43.17,3.38,3.38,0,0,0-1,.8,4.54,4.54,0,0,1-.49.51,2.46,2.46,0,0,1-1.27.6,2.17,2.17,0,0,1-1.2-.17,1.28,1.28,0,0,1-.65-.71,1.45,1.45,0,0,1,.07-1.09,2.78,2.78,0,0,1,.56-.85,3.9,3.9,0,0,1,.8-.67,1.5,1.5,0,0,1,1-.21.5.5,0,0,0-.33.24.91.91,0,0,0,.13,1A1.13,1.13,0,0,0,38.67,46.67Zm-2.26,3.22a2.27,2.27,0,0,0,1.07-.11,3.24,3.24,0,0,1-.64,1.16,7,7,0,0,1-.72.72,1.83,1.83,0,0,1-.95.34,2.92,2.92,0,0,0,.45-.84,3.63,3.63,0,0,0,.12-1.51A2.16,2.16,0,0,0,36.41,49.89Zm9.51-14.77a1.54,1.54,0,0,1,.69-1,2.18,2.18,0,0,1,1.32-.31c.43,0,.66,0,1.12,0a3.06,3.06,0,0,0,.55-.07,1.78,1.78,0,0,0,0,1.07,1.24,1.24,0,0,0,1.15.79A1.36,1.36,0,0,0,52,35.05a1.69,1.69,0,0,1-1.14-.45,1.17,1.17,0,0,1-.28-1,.64.64,0,0,1,.22-.41h0a1.9,1.9,0,0,0,.44-.59,2.63,2.63,0,0,0,.25-1.32,1.42,1.42,0,0,0-.09-.4,1.91,1.91,0,0,0,.61.72,1.7,1.7,0,0,0,1,.3,1.57,1.57,0,0,0,1.31-.77,1.43,1.43,0,0,0,.15-.7,3,3,0,0,1-1.26.12,4.46,4.46,0,0,1-1.07-.26,3.86,3.86,0,0,1-1.31-.77A2.75,2.75,0,0,0,49,28.37a1.55,1.55,0,0,0-1.61.95,1.66,1.66,0,0,0,0,1.17,1.21,1.21,0,0,0,1.12.76,1,1,0,0,0,.9-.41,1,1,0,0,0,0-1c-.39-.62-.87-.4-.87-.4s0-.13.18-.26a.85.85,0,0,1,.92,0,1.9,1.9,0,0,1,.95,1.8,1.85,1.85,0,0,1-.78,1.5,1.66,1.66,0,0,1-1.21.22,1.79,1.79,0,0,1-1.09-.51,2.27,2.27,0,0,1-.7-1.3,1.71,1.71,0,0,0-.23,1.39,1,1,0,0,0,.38.58,1.43,1.43,0,0,0,.26.13,2.46,2.46,0,0,0-.62,0,1.14,1.14,0,0,0-1,1A1.81,1.81,0,0,0,45.92,35.12Zm-5.45,10.2a3,3,0,0,0,2.43,1,3.46,3.46,0,0,0,2.31-.88,4.36,4.36,0,0,0,1.54-3.83,11.53,11.53,0,0,0-.24-2.19c0-.26-.06-.38-.09-.73-.11-1.85.72-2.06.72-2.06a.83.83,0,0,0,.42.93,1.19,1.19,0,0,0,1.28-.07,1.15,1.15,0,0,0,.53-1A1.56,1.56,0,0,0,48.13,35a2.09,2.09,0,0,0-1.73.35,2.77,2.77,0,0,0-.92,1.41,4,4,0,0,0-.08,1.39,8.2,8.2,0,0,0,.21,1.35,1.59,1.59,0,0,0-.54-.8,1.47,1.47,0,0,0-1.43-.18,1.39,1.39,0,0,0-.75,1.23,2.43,2.43,0,0,1,1.22-.1,2,2,0,0,1,1.24.85,2.63,2.63,0,0,1,.37,1.29A4.82,4.82,0,0,1,45.61,43a2.9,2.9,0,0,0-.14-.66,1,1,0,0,0-.85-.7.78.78,0,0,0-.7.47,1.1,1.1,0,0,0,0,.81.59.59,0,0,1,.24-.19.35.35,0,0,1,.38.06c.1.1.31.24.3,1a1.55,1.55,0,0,1-.71,1.34,3,3,0,0,1-1.14.38,2.07,2.07,0,0,1-1.55-.38,1.65,1.65,0,0,1-.66-.92,1.81,1.81,0,0,1,0-1,1.22,1.22,0,0,1,.52-.68.7.7,0,0,0,.13.75,1,1,0,0,0,1.06.25,1.15,1.15,0,0,0,.74-.94,1.21,1.21,0,0,0-1.07-1.38A2,2,0,0,0,40,42.75,2.69,2.69,0,0,0,40.47,45.32Z"/><path d="M74.44,39.29H73.8a8.06,8.06,0,0,1-4.52-1.43c-.34-.26-.48-.79-.44-1.62,0-.46.09-1.08.15-1.89,0-1.38.18-1.73.3-1.88a.6.6,0,0,1,1.09.38c0,.09,0,.3.07.8.17,3,1.43,4.45,3.84,4.49a5.2,5.2,0,0,0,3.31-.75,3.29,3.29,0,0,0,1.31-2.72A4.89,4.89,0,0,0,78,31.58a8.14,8.14,0,0,0-1.85-1.79l-2.11-1.4A17.25,17.25,0,0,1,71.14,26a5.63,5.63,0,0,1-1.33-3.85,4.67,4.67,0,0,1,2-4.06A6.76,6.76,0,0,1,76,16.88a9.84,9.84,0,0,1,4.07.87,1.05,1.05,0,0,1,.59.66c0,.06,0,.22.06.83l.06,2.62a.72.72,0,0,1-.15.49.56.56,0,0,1-.42.18c-.3,0-.51-.31-.7-1A6.07,6.07,0,0,0,78.37,19,3.34,3.34,0,0,0,76,18.05h-.24a4.28,4.28,0,0,0-2.34.66A2.73,2.73,0,0,0,72.23,21a3.88,3.88,0,0,0,1.65,3.26c.48.4,1.58,1.17,3.26,2.28a13.58,13.58,0,0,1,1.55,1.15c.33.3.79.78,1.37,1.42a7.3,7.3,0,0,1,1.36,4.35,5.86,5.86,0,0,1-1.37,3.72,5.49,5.49,0,0,1-3.26,1.94A14.09,14.09,0,0,1,74.44,39.29Z"/><path d="M93.71,39c-3.8,0-6-1.42-6.62-4.2a18.39,18.39,0,0,1-.18-3.08V20.59a3,3,0,0,0-.19-1.41c-.11-.14-.45-.32-1.32-.32s-.92-.38-.92-.69a.65.65,0,0,1,.71-.73c.36,0,.94,0,1.72.07l1.28.06c.33,0,.92,0,1.73-.06l1.33-.07h0a.64.64,0,0,1,.7.73.58.58,0,0,1-.28.54,1.23,1.23,0,0,1-.65.15h-.17c-.57,0-1,.1-1.09.29a2.68,2.68,0,0,0-.25,1.44V33.26A6.13,6.13,0,0,0,90,35.65c.68,1.34,2.07,2,4.12,2A5,5,0,0,0,98.34,36a3.85,3.85,0,0,0,.81-1.91,20,20,0,0,0,.09-2.3V22.64c0-.73,0-1.4,0-2,0-1-.27-1.57-.7-1.7a3.7,3.7,0,0,0-.93-.1c-.8,0-1-.38-1-.69,0-.47.31-.72.83-.69l2.41.09c.22,0,.62,0,1.17-.06l.9-.07h0c.72,0,.82.44.82.69s-.19.73-1.12.73c-.49,0-.81.13-.93.39a3.64,3.64,0,0,0-.21,1.47v11a14.86,14.86,0,0,1-.22,3,5.33,5.33,0,0,1-1.39,2.51C97.77,38.43,96,39,93.71,39Z"/><path d="M113.47,38.76c-.38,0-1,0-1.91-.07l-1.42-.07c-.35,0-1,0-1.92.07l-1.45.07h0c-.5,0-.77-.26-.77-.7s.18-.66,1-.66c1,0,1.55-.24,1.64-.71a16.59,16.59,0,0,0,.06-1.79V20.59a2.51,2.51,0,0,0-.25-1.44c-.11-.13-.43-.29-1.42-.29-.82,0-1-.38-1-.69a.67.67,0,0,1,.75-.73c.35,0,.88,0,1.58.07s1.22.06,1.57.06,1.15,0,2.38-.06l1.88-.07a6.86,6.86,0,0,1,4.18,1.2,5.19,5.19,0,0,1,1.6,2.07,6.54,6.54,0,0,1-1.15,7.19,5.79,5.79,0,0,1-4.24,1.78,3.6,3.6,0,0,1-1.19-.21,1.08,1.08,0,0,1-.72-.49.52.52,0,0,1,0-.44c.08-.21.39-.31,1-.31a3.55,3.55,0,0,0,2.85-1.39,5.1,5.1,0,0,0,1.14-3.33,5.22,5.22,0,0,0-1.48-3.88,4.33,4.33,0,0,0-3.12-1.07h-.12a1.2,1.2,0,0,0-1.08.43,4.6,4.6,0,0,0-.31,2.17V36.38a1,1,0,0,0,.64.92,4.37,4.37,0,0,0,1.06.1c.82,0,1,.36,1,.66A.67.67,0,0,1,113.47,38.76Z"/><path d="M124,38.76a.68.68,0,0,1-.45-.15.67.67,0,0,1-.19-.63c0-.3.23-.65,1-.65s1.35-.15,1.53-.45a6.71,6.71,0,0,0,.16-2.08V20.62a2.46,2.46,0,0,0-.26-1.45c-.11-.14-.45-.31-1.43-.31s-1-.36-1-.66a.68.68,0,0,1,.75-.76c1,0,2.1,0,3.13.07s1.77.06,2.22.06c1.66,0,2.81,0,3.54,0l3.23-.1h0a.54.54,0,0,1,.44.18.9.9,0,0,1,.2.73V22.2c0,.46-.32.53-.49.53s-.56-.29-.72-.83a5.64,5.64,0,0,0-.84-1.94,2.72,2.72,0,0,0-1.26-.8,11.63,11.63,0,0,0-3.61-.3,2.46,2.46,0,0,0-.7.07c-.28.08-.44.19-.49.34a1.89,1.89,0,0,0-.09.62v5.23c0,.93.12,1.12.18,1.17s.29.16,1.06.16a24.82,24.82,0,0,0,3.43-.14,1,1,0,0,0,.81-.72,11.46,11.46,0,0,0,.27-1.36c.09-.64.38-.77.6-.77a.51.51,0,0,1,.58.6c-.08,1.71-.12,2.7-.12,3s0,1.19.12,3a1,1,0,0,1-.18.72.55.55,0,0,1-.4.15.49.49,0,0,1-.44-.21,1,1,0,0,1-.16-.57c-.17-1.15-.5-1.81-1-1.95a16.6,16.6,0,0,0-3.53-.23c-.77,0-1,.08-1.07.13s-.17.19-.17.72v5.78c0,1.25.28,2,.82,2.35a6.61,6.61,0,0,0,2.69.36,9,9,0,0,0,3.1-.37,3.61,3.61,0,0,0,1.86-2.34c.31-.89.6-1.3.91-1.3a.5.5,0,0,1,.42.17.53.53,0,0,1,.09.48,5.2,5.2,0,0,1-.12.82c-.1,1.07-.23,2.23-.39,3.41a1.76,1.76,0,0,1-.2.48l0,0,0,0a.8.8,0,0,1-.36.08l-2.22-.1-11.12.14Z"/><path d="M148.82,38.76c-.37,0-1,0-1.73-.07l-1.27-.07c-.33,0-.9,0-1.74.07l-1.34.07h0a.64.64,0,0,1-.7-.7c0-.3.17-.66,1-.66s1.36-.22,1.45-.71c0-.13,0-.55,0-1.79V20.62a2.92,2.92,0,0,0-.21-1.47c-.1-.13-.4-.29-1.26-.29s-.93-.35-1-.65a.68.68,0,0,1,.73-.77c.31,0,.82,0,1.52.07l1.12.06c.55,0,1.44,0,2.65-.06l1.93-.07a5.38,5.38,0,0,1,3.75,1.34,5.13,5.13,0,0,1,1.58,4A5.82,5.82,0,0,1,153.44,27a2.86,2.86,0,0,1-1.05.65,2.1,2.1,0,0,1,.45.57c.19.32.45.79.74,1.4l2.6,5.2a7.34,7.34,0,0,0,.95,1.49,4.14,4.14,0,0,0,.73.71l.7.23c.52.15.78.42.78.79s-.15.6-.9.6h-.22l-.58,0c-.55,0-1.24,0-2.06-.12a1.37,1.37,0,0,1-.89-.68c-.22-.34-.41-.68-.59-1-.29-.47-1.21-2.44-2.73-5.86a6.08,6.08,0,0,0-1.26-2.1,2.79,2.79,0,0,0-1.62-.41,7.81,7.81,0,0,0-.86,0c-.33.06-.44.13-.47.17s-.09.17-.09,1.06V34.9A7.44,7.44,0,0,0,147.2,37c.16.29.62.44,1.38.44s.94.36.94.66A.63.63,0,0,1,148.82,38.76Zm-1.63-11.57.39.1a4.85,4.85,0,0,0,.63,0,6.78,6.78,0,0,0,1.82-.2,3.15,3.15,0,0,0,2.21-2.21,5.19,5.19,0,0,0,.3-1.8,5.3,5.3,0,0,0-.92-3.28,3.18,3.18,0,0,0-2.68-1.17c-1.13,0-1.5.18-1.61.32a4.29,4.29,0,0,0-.26,2.08v5.75c0,.26.06.34.09.36l0,0Z"/><path d="M162.41,38.66a.47.47,0,0,1-.42-.19,1,1,0,0,1-.15-.55c0-.27.18-.59.88-.59s1.08-.15,1.22-.46a6.87,6.87,0,0,0,.14-2v-14a7.9,7.9,0,0,0-.08-1.48,1,1,0,0,0-.79-.48,8.76,8.76,0,0,0-1.19-.11.6.6,0,0,1-.57-.58.66.66,0,0,1,.38-.73,5,5,0,0,1,1.29,0l2,.06h1.36l1.3,0a27.41,27.41,0,0,1,2.77.13A4.92,4.92,0,0,1,174.43,20a5.07,5.07,0,0,1,.72,2.62,4.37,4.37,0,0,1-2.77,4.35,5.2,5.2,0,0,1,2.64,2,6.35,6.35,0,0,1,1.13,3.73,6.77,6.77,0,0,1-.53,2.67,4.88,4.88,0,0,1-3.35,3.06,9.08,9.08,0,0,1-2.23.27c-.68,0-1.84,0-3.42-.07,0,0-1.81-.07-2.57-.06a14.29,14.29,0,0,0-1.53.13Zm4.24-10.48a3.11,3.11,0,0,0-.09,1V34c0,.85,0,1.38,0,1.58a1.87,1.87,0,0,0,.61,1.22,3.73,3.73,0,0,0,2.08.37,3.6,3.6,0,0,0,2.88-1.09,5,5,0,0,0,1.14-3.38,4.54,4.54,0,0,0-1.73-3.94,5,5,0,0,0-2.95-.88q-.51,0-1.14.06A2.23,2.23,0,0,0,166.65,28.18Zm1.85-9.32a5.7,5.7,0,0,0-1.27.1c-.44.12-.67.64-.67,1.53v4.7c0,.9.09,1.07.12,1.1s.18.13.79.13h1.3a3.33,3.33,0,0,0,2.7-1,4.07,4.07,0,0,0,.84-2.64,3.54,3.54,0,0,0-3.81-3.92Z"/><path d="M178.72,38.76c-.68,0-.78-.41-.78-.66s.13-.7.75-.73H179a3.5,3.5,0,0,0,.82-.07c.23,0,.61-.36,1.09-1.54.12-.28.29-.75.52-1.37l5.95-16.64c0-.07.07-.22.16-.43s.3-.52.56-.52.45.28.63.86l.7,2.09,4.81,14.57A20.37,20.37,0,0,0,195,36.4a1.65,1.65,0,0,0,1.47,1,1.18,1.18,0,0,1,.89.27.64.64,0,0,1,.15.54c0,.2-.12.54-.66.54s-1.11,0-2-.07-1.5-.07-1.92-.07-.95,0-1.81.07l-1.42.07h0c-.63,0-.73-.37-.73-.59s.23-.76,1.12-.76a5.23,5.23,0,0,0,1.12-.07c.46-.15.6-.54.46-1.2-.07-.31-.42-1.49-1.06-3.51l-.39-1.25,0-.07c-.05-.12-.23-.18-.5-.18h-.58l-1.88,0-2.26,0c-.69,0-.78.1-.79.11a6.1,6.1,0,0,0-.43,1c-.3.76-.71,1.93-1.24,3.46a6.25,6.25,0,0,0-.15.78c0,.21,0,.91,1.73.91a1.13,1.13,0,0,1,.82.24.59.59,0,0,1,.15.46c0,.26-.13.72-1,.65h0c-.23,0-.67,0-1.31-.07l-1.13-.07c-.28,0-.74,0-1.38.07l-1.06.07Zm6-9.23H185l2.29,0h2.18a1.16,1.16,0,0,0,.27,0c0-.06,0-.18-.11-.42l-1.75-5.85c-.09-.32-.23-.79-.43-1.41a.08.08,0,0,0,0,0s0,.08,0,.12c-.07.22-.16.46-.26.73s-.11.32-.18.57l-2.15,6C184.74,29.41,184.71,29.49,184.7,29.53Z"/><path d="M212.09,38.76c-1,0-2.66,0-4.93-.07l-3.69-.07c-.31,0-.8,0-1.47.07s-1.16.07-1.5.07a.67.67,0,0,1-.75-.73c0-.32.18-.7,1-.7,1.06,0,1.4-.22,1.5-.4a6.12,6.12,0,0,0,.16-2.06V20.59a2.56,2.56,0,0,0-.24-1.44c-.11-.13-.45-.29-1.45-.29-.77,0-1-.37-1-.68a.68.68,0,0,1,.16-.53.8.8,0,0,1,.59-.21c.41,0,1.06,0,1.95.07l1.39.06c.38,0,1,0,1.92-.06l1.45-.07h0a.68.68,0,0,1,.77.73c0,.31-.18.69-1,.69s-1.3.17-1.42.31-.28.51-.28,1.42v13.3a6.86,6.86,0,0,0,.32,2.67c.32.51,1.06.77,2.2.77a4.46,4.46,0,0,0,3.09-1,6.53,6.53,0,0,0,1.48-2.67c.14-.39.34-.59.6-.59s.48.13.48.73a14.64,14.64,0,0,1-.15,1.73,14.15,14.15,0,0,0-.15,1.73,2.89,2.89,0,0,1-.1,1.07C212.9,38.6,212.58,38.76,212.09,38.76Z"/><path d="M228.67,38.76c-1,0-2.67,0-4.93-.07l-3.69-.07c-.32,0-.8,0-1.47.07s-1.16.07-1.49.07a.67.67,0,0,1-.76-.73c0-.32.18-.7,1-.7,1.06,0,1.4-.22,1.49-.4a5.59,5.59,0,0,0,.17-2.06V20.59a2.56,2.56,0,0,0-.24-1.44c-.11-.13-.45-.29-1.45-.29-.77,0-1-.37-1-.68a.68.68,0,0,1,.16-.53.82.82,0,0,1,.6-.21c.4,0,1,0,1.94.07l1.39.06c.38,0,1,0,1.92-.06l1.45-.07h0a.68.68,0,0,1,.77.73c0,.31-.18.69-1,.69s-1.3.17-1.42.31-.27.51-.27,1.42v13.3a6.93,6.93,0,0,0,.31,2.67c.31.51,1.06.77,2.19.77a4.47,4.47,0,0,0,3.1-1,6.42,6.42,0,0,0,1.47-2.67c.15-.39.35-.59.61-.59s.48.13.48.73a13.13,13.13,0,0,1-.16,1.73,16,16,0,0,0-.14,1.73,2.74,2.74,0,0,1-.11,1.07C229.47,38.6,229.16,38.76,228.67,38.76Z"/></g></g></svg>